#N canvas 0 0 974 474 10;
#X obj 205 339 dac~;
#X obj 138 279 *~;
#X obj 110 239 phasor~ 440;
#X obj 105 210 random 1000;
#X obj 124 96 itsatrap;
#X obj 195 40 r preset_attack;
#X obj 300 40 r preset_on;
#X obj 390 41 r preset_decay;
#X obj 506 42 r preset_off;
#X msg 646 179 \; preset_attack 25 \; preset_on 25 \; preset_decay
25 \; preset_off 25 \;;
#X msg 773 180 \; preset_attack 75 \; preset_on 0 \; preset_decay 0
\; preset_off 25 \;;
#X msg 774 328 \; preset_attack 0 \; preset_on 0 \; preset_decay 75
\; preset_off 25 \;;
#X msg 776 256 \; preset_attack 0 \; preset_on 75 \; preset_decay 0
\; preset_off 25 \;;
#X obj 648 130 loadbang;
#X connect 1 0 0 0;
#X connect 1 0 0 1;
#X connect 2 0 1 0;
#X connect 3 0 2 0;
#X connect 4 0 3 0;
#X connect 4 1 1 1;
#X connect 5 0 4 1;
#X connect 6 0 4 2;
#X connect 7 0 4 3;
#X connect 8 0 4 4;
#X connect 13 0 9 0;
