#N canvas 0 0 974 474 10;
#X obj 42 250 *~;
#X obj 14 210 phasor~ 440;
#X obj 9 181 random 1000;
#X obj 28 70 itsatrap;
#X obj 212 363 *~;
#X obj 386 184 itsatrap;
#X obj 246 415 dac~;
#X obj 118 26 r preset_attack;
#X obj 223 26 r preset_on;
#X obj 313 27 r preset_decay;
#X obj 429 28 r preset_off;
#X msg 534 23 \; preset_attack 25 \; preset_on 25 \; preset_decay 25
\; preset_off 25 \;;
#X msg 661 24 \; preset_attack 75 \; preset_on 0 \; preset_decay 0
\; preset_off 25 \;;
#X obj 536 -26 loadbang;
#X obj 478 138 r preset_attack_2;
#X obj 589 138 r preset_on_2;
#X obj 678 139 r preset_decay_2;
#X obj 789 140 r preset_off_2;
#X obj 750 188 loadbang;
#X msg 753 216 \; preset_attack_2 250 \; preset_on_2 250 \; preset_decay_2
250 \; preset_off_2 250 \;;
#X msg 754 290 \; preset_attack_2 750 \; preset_on_2 0 \; preset_decay_2
0 \; preset_off_2 250 \;;
#X msg 789 25 \; preset_attack 0 \; preset_on \; preset_decay 75 \;
preset_off 25 \;;
#X msg 753 365 \; preset_attack_2 0 \; preset_on_2 0 \; preset_decay_2
750 \; preset_off_2 250 \;;
#X connect 0 0 4 0;
#X connect 1 0 0 0;
#X connect 2 0 1 0;
#X connect 3 0 2 0;
#X connect 3 1 0 1;
#X connect 4 0 6 0;
#X connect 4 0 6 1;
#X connect 5 1 4 1;
#X connect 7 0 3 1;
#X connect 8 0 3 2;
#X connect 9 0 3 3;
#X connect 10 0 3 4;
#X connect 13 0 11 0;
#X connect 14 0 5 1;
#X connect 15 0 5 2;
#X connect 16 0 5 3;
#X connect 17 0 5 4;
#X connect 18 0 19 0;
