#N canvas 30 71 912 435 10;
#X obj 49 240 outlet;
#X obj 107 129 bng 15 250 50 0 empty empty empty 17 7 0 10 -262144
-1 -1;
#X obj 208 262 vline~;
#X text 367 162 off;
#X floatatom 182 163 5 0 0 0 - off_t -;
#X obj 229 162 hsl 128 15 0 1000 0 0 off_t empty empty -2 -8 0 10 -262144
-1 -1 0 1;
#X floatatom 183 125 5 0 0 0 - o_t -;
#X obj 227 123 hsl 128 15 0 1000 0 0 o_t empty empty -2 -8 0 10 -262144
-1 -1 6000 1;
#X obj 712 25 delay 0;
#X obj 776 264 delay 0;
#X floatatom 182 105 5 0 0 0 - a_t -;
#X obj 227 103 hsl 128 15 0 1000 0 0 a_t empty empty -2 -8 0 10 -262144
-1 -1 6200 1;
#X text 359 102 attack;
#X obj 527 50 pack 1 \$2;
#X floatatom 182 144 5 0 0 0 - d_t -;
#X obj 228 142 hsl 128 15 0 1000 0 0 d_t empty empty -2 -8 0 10 -262144
-1 -1 6000 1;
#X text 365 141 decay;
#X obj 514 256 pack 0 \$2;
#X text 364 122 on;
#X obj 209 280 outlet~;
#X obj 530 69 s v;
#X obj 206 242 r v;
#X obj 535 283 s v;
#X text 129 128 start;
#X text 111 186 bang;
#X text 344 183 envelope;
#X text 105 154 can't be;
#X text 110 164 stopped;
#X obj 518 204 delay 0;
#X obj 508 13 delay 0;
#X text 808 208 off time;
#X text 570 148 decay time;
#X text 750 -18 on time;
#X text 602 -15 attack time;
#X obj 561 -16 r a_t;
#X obj 45 216 r start_bang;
#X obj 447 -14 r start_bang;
#X obj 10 137 s start_bang;
#X obj 528 32 s o_b;
#X obj 703 1 r o_b;
#X text 696 -17 on bang;
#X obj 752 1 r o_t;
#X obj 579 170 r d_t;
#X obj 487 172 r d_b;
#X obj 722 50 s d_b;
#X obj 517 229 s off_b;
#X obj 735 235 r off_b;
#X obj 808 235 r off_t;
#X text 476 149 decay bang;
#X text 729 73 decay bang;
#X text 201 216 envelope out;
#X text 530 301 envelope out;
#X text 519 92 envelope out;
#X text 730 207 off bang;
#X obj 781 284 s ret_b;
#X text 778 307 retrigger bang;
#X text 126 49 retrigger bang;
#X obj 132 73 r ret_b;
#X connect 1 0 37 0;
#X connect 2 0 19 0;
#X connect 8 0 44 0;
#X connect 9 0 54 0;
#X connect 13 0 20 0;
#X connect 17 0 22 0;
#X connect 21 0 2 0;
#X connect 28 0 45 0;
#X connect 29 0 38 0;
#X connect 34 0 13 1;
#X connect 34 0 29 1;
#X connect 35 0 0 0;
#X connect 36 0 13 0;
#X connect 36 0 29 0;
#X connect 39 0 8 0;
#X connect 41 0 8 1;
#X connect 42 0 17 1;
#X connect 42 0 28 1;
#X connect 43 0 17 0;
#X connect 43 0 28 0;
#X connect 46 0 9 0;
#X connect 47 0 9 1;
#X connect 57 0 1 0;
#X coords 0 -1 1 1 300 100 1 100 100;
